<svg xmlns="http://www.w3.org/2000/svg" width="27" height="28" viewBox="0 0 27 28" fill="none">
<path d="M21.375 3.95264C21.9717 3.95264 22.544 4.18969 22.966 4.61165C23.3879 5.0336 23.625 5.6059 23.625 6.20264V21.9526C23.625 22.5494 23.3879 23.1217 22.966 23.5436C22.544 23.9656 21.9717 24.2026 21.375 24.2026H5.625C5.02826 24.2026 4.45597 23.9656 4.03401 23.5436C3.61205 23.1217 3.375 22.5494 3.375 21.9526V6.20264C3.375 5.6059 3.61205 5.0336 4.03401 4.61165C4.45597 4.18969 5.02826 3.95264 5.625 3.95264H21.375ZM20.8125 21.3901V15.4276C20.8125 14.455 20.4261 13.5221 19.7383 12.8343C19.0505 12.1465 18.1177 11.7601 17.145 11.7601C16.1887 11.7601 15.075 12.3451 14.535 13.2226V11.9739H11.3962V21.3901H14.535V15.8439C14.535 14.9776 15.2325 14.2689 16.0988 14.2689C16.5165 14.2689 16.9171 14.4348 17.2124 14.7302C17.5078 15.0256 17.6737 15.4262 17.6737 15.8439V21.3901H20.8125ZM7.74 10.2076C8.24126 10.2076 8.72199 10.0085 9.07643 9.65407C9.43088 9.29963 9.63 8.8189 9.63 8.31764C9.63 7.27139 8.78625 6.41639 7.74 6.41639C7.23576 6.41639 6.75217 6.6167 6.39561 6.97325C6.03906 7.3298 5.83875 7.81339 5.83875 8.31764C5.83875 9.36389 6.69375 10.2076 7.74 10.2076ZM9.30375 21.3901V11.9739H6.1875V21.3901H9.30375Z" fill="white"/>
</svg>